<svg version="1.1" width="37.5em" height="3.5045em" viewBox="0 -1508.9 32291.5 3017.9" xmlns="http://www.w3.org/2000/svg" xmlns:xlink="http://www.w3.org/1999/xlink" font-size="15" overflow="hidden"><defs><path d=" M 94 250 C 94 296 97.3333 339.667 104 381 C 110.667 422.333 118.333 458 127 488 C 135.667 518 148 547.333 164 576 C 180 604.667 192.667 627 202 643 C 211.333 659 225.333 676.333 244 695 C 262.667 713.667 273.667 725 277 729 C 280.333 733 288.667 740 302 750 L 315 750 L 319 750 C 328.333 750 333 747 333 741 C 333 739 327.333 732 316 720 C 304.667 708 291 690.333 275 667 C 259 643.667 242.667 615 226 581 C 209.333 547 195.333 501 184 443 C 172.667 385 167 320.667 167 250 C 167 179.333 172.667 115.333 184 58 C 195.333 0.666667 209 -45.6667 225 -81 C 241 -116.333 257.333 -145 274 -167 C 290.667 -189 304.667 -206.667 316 -220 C 327.333 -233.333 333 -240.333 333 -241 C 333 -247 328 -250 318 -250 L 315 -250 L 302 -250 L 274 -226 C 211.333 -169.333 165.667 -98.6667 137 -14 C 108.333 70.6667 94 158.667 94 250 Z" id="E1-MJMAIN-28" stroke-width="1"/><path d=" M 118 -162 C 119.333 -162 121.333 -162.667 124 -164 C 126.667 -165.333 130.333 -166.333 135 -167 C 139.667 -167.667 143.667 -168 147 -168 C 155.667 -168 163.667 -163.667 171 -155 C 178.333 -146.333 183.667 -136.667 187 -126 C 193.667 -108 205 -57 221 27 C 237 111 252.333 191 267 267 C 281.667 343 289 381.333 289 382 L 289 385 L 242 385 C 210.667 385 194 385.667 192 387 C 189.333 389 188 392.333 188 397 L 195 425 C 196.333 428.333 199 430 203 430 C 207 430 222.667 430.333 250 431 C 282 431 298 431.333 298 432 C 298 433.333 301 450 307 482 C 313 514 317 533.333 319 540 C 343.667 650 392.333 705 465 705 C 489.667 703.667 510 696.333 526 683 C 542 669.667 550 652 550 630 C 550 606 543 588.667 529 578 C 515 567.333 501 561.667 487 561 C 457.667 561 443 575 443 603 C 443 615.667 446.667 626.667 454 636 C 461.333 645.333 469.333 652.333 478 657 L 487 662 C 476.333 666 466.333 668 457 668 C 449 668 441.333 664.667 434 658 C 426.667 651.333 421.667 642 419 630 C 414.333 610.667 409 584.667 403 552 C 397 519.333 391.667 491.667 387 469 C 382.333 446.333 380 434.333 380 433 C 380 431.667 398.333 431 435 431 C 465 431 482.333 430.667 487 430 C 491.667 429.333 495.333 427.333 498 424 C 498.667 421.333 498 415.667 496 407 C 494 398.333 492.333 393 491 391 C 489.667 387.667 486.667 386 482 386 C 477.333 386 459.333 385.667 428 385 L 372 385 L 349 263 C 317 97.6667 294.667 -5.66667 282 -47 C 264 -103.667 240.667 -145.667 212 -173 C 187.333 -194.333 163 -205 139 -205 C 117.667 -205 98.3333 -198.667 81 -186 C 63.6667 -173.333 55 -155.333 55 -132 C 55 -107.333 62 -89.3333 76 -78 C 90 -66.6667 104 -61 118 -61 C 147.333 -61 162 -75 162 -103 C 162 -115.667 158.333 -126.667 151 -136 C 143.667 -145.333 135.667 -152.333 127 -157 L 118 -162 Z" id="E1-MJMATHI-66" stroke-width="1"/><path d=" M 229 286 C 220.333 375.333 216 425.333 216 436 C 216 448 224 457.333 240 464 C 240.667 464 242.333 464 245 464 C 247.667 464 249.667 464.333 251 465 C 259 464.333 266.333 461.333 273 456 C 279.667 450.667 283 444 283 436 C 283 424.667 281 398 277 356 C 273 314 270.667 290.667 270 286 L 328 328 C 365.333 355.333 385.667 370 389 372 C 392.333 374 395.667 375 399 375 C 407.667 375 415.667 371.667 423 365 C 430.333 358.333 434.333 349.333 435 338 C 435 329.333 431.667 321.667 425 315 C 421.667 313 399 302 357 282 C 315 262 292.333 251.333 289 250 L 355 219 L 425 184 C 431 178 434 170.333 434 161 C 434 151 431 142.667 425 136 C 419 129.333 411 125.667 401 125 C 395.667 125 389.667 127 383 131 C 376.333 135 358 148.333 328 171 L 270 213 C 278.667 123.667 283 73.6667 283 63 C 283 56.3333 280.667 50 276 44 C 271.333 38 262.667 35 250 35 C 237.333 35 228.667 38 224 44 C 219.333 50 216.667 56.3333 216 63 C 216 74.3333 218 101 222 143 C 226 185 228.333 208.333 229 213 L 171 171 C 133.667 143.667 113.333 129 110 127 C 107.333 125 104 124 100 124 C 91.3333 124 83.3333 127.333 76 134 C 68.6667 140.667 64.6667 149.667 64 161 C 64 164.333 64 167 64 169 C 64 171 65 173 67 175 C 69 177 70.6667 179 72 181 C 73.3333 183 76.3333 185.333 81 188 C 85.6667 190.667 90 193 94 195 C 98 197 104.333 200 113 204 C 121.667 208 130 211.667 138 215 C 146 218.333 156.667 223.333 170 230 C 183.333 236.667 196.667 243.333 210 250 L 74 315 C 68 321 65 328.667 65 338 C 65 348 68 356.333 74 363 C 80 369.667 88 373.333 98 374 C 103.333 374 109.333 372 116 368 C 122.667 364 141 350.667 171 328 L 229 286 Z" id="E1-MJMAIN-2217" stroke-width="1"/><path d=" M 311 43 C 301 34.3333 286.333 25 267 15 C 247.667 5 227.333 0 206 0 C 164 0 130.333 15 105 45 C 79.6667 75 66.6667 113.333 66 160 C 66 230 91.6667 294.333 143 353 C 194.333 411.667 251.333 441.333 314 442 C 345.333 442 374.333 426 401 394 L 404 398 C 405.333 400 407 402 409 404 C 411 406 414 408.667 418 412 C 422 415.333 426.333 417.667 431 419 C 435.667 420.333 441 421.333 447 422 C 456.333 422 464 419 470 413 C 476 407 479.333 400.667 480 394 C 480 384 461 303.333 423 152 C 385 0.666667 365 -76.6667 363 -80 C 351 -116 325.333 -145.667 286 -169 C 246.667 -192.333 201.667 -204.333 151 -205 C 57 -205 10 -182.333 10 -137 C 10 -119.667 16 -104.333 28 -91 C 40 -77.6667 55.3333 -71 74 -71 C 84 -71 93.3333 -74 102 -80 C 110.667 -86 115.333 -96.3333 116 -111 C 116 -117.667 115.333 -124 114 -130 C 112.667 -136 110.333 -140.667 107 -144 C 103.667 -147.333 101 -150.667 99 -154 C 97 -157.333 94.6667 -160 92 -162 L 90 -164 L 91 -164 C 97.6667 -166 117.667 -167 151 -167 C 176.333 -167 196.333 -163 211 -155 C 226.333 -147.667 240.667 -136.667 254 -122 C 267.333 -107.333 276.667 -91.6667 282 -75 C 286 -62.3333 291.333 -41.6667 298 -13 C 306.667 19 311 37.6667 311 43 Z M 384 328 L 380 339 C 378 346.333 376.333 351.333 375 354 C 373.667 356.667 371.667 361.333 369 368 C 366.333 374.667 363 379.333 359 382 C 355 384.667 350.667 388.333 346 393 C 341.333 397.667 335.333 400.667 328 402 C 320.667 403.333 313.333 404.333 306 405 C 276.667 405 248.333 387.333 221 352 C 201 326 184.333 286.333 171 233 C 157.667 179.667 151 141 151 117 C 151 64.3333 171.667 38 213 38 C 250.333 38 287 61.3333 323 108 L 331 118 L 384 328 Z" id="E1-MJMATHI-67" stroke-width="1"/><path d=" M 60 749 L 64 750 C 67.3333 750 70.6667 750 74 750 L 86 750 L 114 726 C 176.667 669.333 222.333 598.667 251 514 C 279.667 429.333 294 341.333 294 250 C 294 204.667 290.667 161 284 119 C 277.333 77 269.667 41.3333 261 12 C 252.333 -17.3333 240 -46.6667 224 -76 C 208 -105.333 195.333 -127.667 186 -143 C 176.667 -158.333 163 -175.333 145 -194 C 127 -212.667 116.333 -223.667 113 -227 C 109.667 -230.333 102 -236.667 90 -246 C 88 -248 86.6667 -249.333 86 -250 L 74 -250 C 68.6667 -250 65 -250 63 -250 C 61 -250 59.3333 -249 58 -247 C 56.6667 -245 55.6667 -242 55 -238 C 55.6667 -237.333 59.3333 -233 66 -225 C 169.333 -117.667 221 40.6667 221 250 C 221 459.333 169.333 617.667 66 725 C 59.3333 733 55.6667 737.333 55 738 C 55 743.333 56.6667 747 60 749 Z" id="E1-MJMAIN-29" stroke-width="1"/><path d=" M 21 287 C 21.6667 291 22.6667 296.333 24 303 C 25.3333 309.667 29.3333 322.333 36 341 C 42.6667 359.667 49.3333 375.333 56 388 C 62.6667 400.667 73.6667 413 89 425 C 104.333 437 119.667 442.667 135 442 C 159 442 179 436 195 424 C 211 412 221 400.667 225 390 C 229 379.333 231 372.333 231 369 C 231 367.667 231.333 367 232 367 L 243 378 C 283.667 420.667 330 442 382 442 C 418 442 447 433 469 415 C 491 397 502.333 370.667 503 336 C 503.667 301.333 491 249 465 179 C 439 109 426.333 66.6667 427 52 C 427 34.6667 432.667 26 444 26 C 448 26 451 26.3333 453 27 C 472.333 30.3333 489.667 43 505 65 C 520.333 87 532 113.667 540 145 C 541.333 150.333 548 153 560 153 C 573.333 153 580 150.333 580 145 C 580 144.333 578.667 139.333 576 130 C 570.667 110.667 563.333 91.6667 554 73 C 544.667 54.3333 529.333 35.6667 508 17 C 486.667 -1.66667 463.667 -10.6667 439 -10 C 407.667 -10 385 -1 371 17 C 357 35 350 53.6667 350 73 C 350 85.6667 362 125.667 386 193 C 410 260.333 422.333 311 423 345 C 423 384.333 408.333 404 379 404 L 374 404 C 316.667 404 268.333 370.333 229 303 L 222 291 L 189 157 C 167 69.6667 154.333 22.6667 151 16 C 142.333 -2 128 -11 108 -11 C 99.3333 -11 92.3333 -9 87 -5 C 81.6667 -1 78 3 76 7 C 74 11 73.3333 14.3333 74 17 C 74 25.6667 86.6667 80 112 180 C 137.333 280 150.667 334.333 152 343 C 152.667 346.333 153 354 153 366 C 153 392 145 405 129 405 C 103.667 405 82.6667 371.667 66 305 C 62 291.667 60 284.667 60 284 C 58.6667 280 52.3333 278 41 278 L 27 278 C 23 282 21 285 21 287 Z" id="E1-MJMATHI-6E" stroke-width="1"/><path d=" M 56 347 C 56 355.667 60.6667 362.333 70 367 L 707 367 C 717 361.667 722 355 722 347 C 722 339.667 717.333 333.333 708 328 L 390 327 L 72 327 C 61.3333 330.333 56 337 56 347 Z M 56 153 C 56 163 61.3333 169.667 72 173 L 708 173 C 717.333 166.333 722 159.667 722 153 C 722 144.333 717 137.667 707 133 L 70 133 C 60.6667 137.667 56 144.333 56 153 Z" id="E1-MJMAIN-3D" stroke-width="1"/><path d=" M 114 -798 C 126 -815.333 143 -824 165 -824 L 167 -824 C 185.667 -824 204.333 -804 223 -764 C 241.667 -724 259 -669.333 275 -600 C 291 -530.667 306 -461 320 -391 C 334 -321 348 -245.333 362 -164 C 364 -150 365.667 -139.667 367 -133 C 415 150.333 467 413 523 655 C 579 897 619.667 1054.33 645 1127 C 649 1139 652.333 1149 655 1157 C 657.667 1165 663.333 1179.67 672 1201 C 680.667 1222.33 689.667 1241 699 1257 C 708.333 1273 719.667 1289.33 733 1306 C 746.333 1322.67 761 1336 777 1346 C 793 1356 810 1360.67 828 1360 C 865.333 1360 893.333 1348.33 912 1325 C 930.667 1301.67 941.333 1275 944 1245 C 944 1228.33 940 1215 932 1205 C 924 1195 916.333 1188.67 909 1186 C 901.667 1183.33 894.333 1182.33 887 1183 C 873 1183 860.333 1188 849 1198 C 837.667 1208 832 1221.67 832 1239 C 832 1271 849.667 1290 885 1296 L 882 1300 C 880 1302 877.333 1304.33 874 1307 C 870.667 1309.67 868 1311.67 866 1313 C 856 1319.67 845 1323 833 1323 C 823.667 1323 815 1319 807 1311 C 799 1303 788.333 1284.33 775 1255 C 761.667 1225.67 748.667 1187 736 1139 C 723.333 1091 707.667 1023.33 689 936 C 670.333 848.667 651.667 746 633 628 C 593.667 404.667 552.667 193.667 510 -5 C 467.333 -203.667 434 -347.667 410 -437 C 386 -526.333 367.667 -590.333 355 -629 C 303.667 -784.333 240.333 -862 165 -862 C 138.333 -862 114 -851.667 92 -831 C 70 -810.333 57.6667 -782 55 -746 C 55 -722.667 61.3333 -706.667 74 -698 C 86.6667 -689.333 99.3333 -685 112 -685 C 126 -685 138.667 -690 150 -700 C 161.333 -710 167 -723.667 167 -741 C 167 -773 149.333 -792 114 -798 Z" id="E1-MJSZ2-222B" stroke-width="1"/><path d=" M 55 217 C 55 275.667 73.6667 327.667 111 373 C 148.333 418.333 196 441.333 254 442 C 312.667 442 367.667 421.667 419 381 C 444.333 360.333 469 334.333 493 303 L 507 284 L 514 294 C 583.333 392.667 661 442 747 442 C 804.333 442 851.333 419.333 888 374 C 924.667 328.667 943.333 275.333 944 214 C 944 156.667 925.667 105 889 59 C 852.333 13 803.667 -10.3333 743 -11 C 685.667 -11 631.333 9.33333 580 50 C 554.667 70.6667 530 96.6667 506 128 L 492 147 L 485 137 C 415.667 38.3333 338 -11 252 -11 C 194.667 -11 147.667 11.6667 111 57 C 74.3333 102.333 55.6667 155.667 55 217 Z M 907 217 C 907 262.333 894.333 303.667 869 341 C 843.667 378.333 807.667 397 761 397 C 747 397 733.333 395.333 720 392 C 706.667 388.667 694 384 682 378 C 670 372 658.667 365.667 648 359 C 637.333 352.333 627.667 344.333 619 335 C 610.333 325.667 602 317.333 594 310 C 586 302.667 579.333 294.333 574 285 C 568.667 275.667 563.667 268.333 559 263 C 554.333 257.667 550.667 252 548 246 L 543 238 L 574 198 C 594.667 171.333 610.667 151.333 622 138 C 633.333 124.667 647.333 110 664 94 C 680.667 78 697.333 67 714 61 C 730.667 55 747.667 51.6667 765 51 C 806.333 51 840.333 67.3333 867 100 C 893.667 132.667 907 171.667 907 217 Z M 92 214 C 92 168 105 126.333 131 89 C 157 51.6667 193 33 239 33 C 317.667 33 390 86.3333 456 193 L 425 233 C 384.333 285.667 354 320.333 334 337 C 301.333 365.667 267.667 380 233 380 C 191.667 380 158 363.667 132 331 C 106 298.333 92.6667 259.333 92 214 Z" id="E1-MJMAIN-221E" stroke-width="1"/><path d=" M 84 237 C 84 237 84 241.333 84 250 C 84 258.667 88.6667 265.333 98 270 L 679 270 C 689 264.667 694 258 694 250 C 694 242 689 235.333 679 230 L 98 230 C 88.6667 234.667 84 241.333 84 250 Z" id="E1-MJMAIN-2212" stroke-width="1"/><path d=" M 39 284 C 25 284 18 287.333 18 294 C 18 298.667 27 313.333 45 338 C 63 362.667 81 382.667 99 398 C 122.333 416 144 426.333 164 429 C 168 430.333 224 431 332 431 C 438.667 431 493.667 430.333 497 429 C 510.333 425.667 517 416.667 517 402 C 517 392.667 514 384 508 376 C 502 368 494.333 362.667 485 360 C 481 358.667 449 358 389 358 C 329 358 299 357.333 299 356 C 298.333 355.333 293 328 283 274 C 273 220 262.333 165 251 109 C 239.667 53 233.667 23.3333 233 20 C 229.667 10 223.667 2 215 -4 C 206.333 -10 196.667 -13 186 -13 C 164 -13 153 -2 153 20 L 153 30 L 203 192 C 210.333 216 218.333 242.667 227 272 C 235.667 301.333 242.667 322.667 248 336 L 254 357 C 254 357.667 238.667 358 208 358 C 206.667 358 203 358 197 358 C 191 358 186.333 358.333 183 359 C 131 359 90.3333 337.667 61 295 C 57.6667 289.667 55 286.667 53 286 C 51 285.333 46.3333 284.667 39 284 Z" id="E1-MJMATHI-3C4" stroke-width="1"/><path d=" M 366 683 C 366.667 683 390.667 684.667 438 688 C 485.333 691.333 509.667 693.333 511 694 C 519 694 523 691.333 523 686 C 523 681.333 498.667 580.667 450 384 C 401.333 187.333 376.333 87 375 83 C 373.667 79 373.333 74 374 68 C 374 40 383.333 26 402 26 C 408 26.6667 414.667 29.6667 422 35 C 436 48.3333 449.667 80.3333 463 131 C 467 144.333 470.333 151.333 473 152 C 474.333 152.667 477.667 153 483 153 L 487 153 L 491 153 C 501 153 506 150.333 506 145 C 506 141.667 505 136.333 503 129 C 494.333 95.6667 484.333 68.6667 473 48 C 461.667 27.3333 452.333 14 445 8 C 437.667 2 428.333 -3.33333 417 -8 C 411.667 -9.33333 403.667 -10 393 -10 C 370.333 -10 351.333 -5 336 5 C 320.667 15 310.667 25.3333 306 36 L 300 51 C 299.333 51.6667 298 51.3333 296 50 C 294.667 48.6667 293.333 47.3333 292 46 C 252.667 8.66667 212.667 -10 172 -10 C 135.333 -10 103 3.33333 75 30 C 47 56.6667 33 99 33 157 C 33 189 39.6667 221.667 53 255 C 66.3333 288.333 82.3333 317 101 341 C 132.333 379 163.667 405.333 195 420 C 226.333 434.667 254.667 442 280 442 C 317.333 442 345.333 428 364 400 C 367.333 396 369 394.667 369 396 C 369.667 398.667 378.667 435 396 505 C 413.333 575 422.667 612 424 616 C 424 624.667 421.667 630 417 632 C 412.333 634 399.333 635.667 378 637 L 357 637 C 353 641 351 643.667 351 645 C 351 646.333 351.667 652.667 353 664 C 356.333 676.667 360.667 683 366 683 Z M 352 326 C 336.667 378.667 311.667 405 277 405 C 253.667 405 231.333 394.667 210 374 C 188.667 353.333 172 326.333 160 293 C 140.667 240.333 127 185.667 119 129 C 119 127 119 123.333 119 118 C 119 112.667 118.667 108.667 118 106 C 118 76 124 55.3333 136 44 C 148 32.6667 162.333 26.6667 179 26 C 215 26 252 50 290 98 L 298 109 L 352 326 Z" id="E1-MJMATHI-64" stroke-width="1"/></defs><g stroke="currentColor" stroke-width="0" fill="currentColor" transform="matrix(1,0,0,-1,0,0)"><g transform="matrix(1,0,0,1,9126,0)"><use width="100%" height="100%" xlink:href="#E1-MJMAIN-28"></use><use x="389" width="100%" height="100%" xlink:href="#E1-MJMATHI-66"></use><use x="1162" width="100%" height="100%" xlink:href="#E1-MJMAIN-2217"></use><use x="1884" width="100%" height="100%" xlink:href="#E1-MJMATHI-67"></use><use x="2365" width="100%" height="100%" xlink:href="#E1-MJMAIN-29"></use><use x="2754" width="100%" height="100%" xlink:href="#E1-MJMAIN-28"></use><use x="3144" width="100%" height="100%" xlink:href="#E1-MJMATHI-6E"></use><use x="3744" width="100%" height="100%" xlink:href="#E1-MJMAIN-29"></use><use x="4412" width="100%" height="100%" xlink:href="#E1-MJMAIN-3D"></use><g transform="matrix(1,0,0,1,5468,0)"><use width="100%" height="100%" xlink:href="#E1-MJSZ2-222B"></use><use x="1500" y="1540" width="100%" height="100%" xlink:href="#E1-MJMAIN-221E" transform="matrix(0.707,0,0,0.707,0,0)"></use><g transform="matrix(1,0,0,1,556,-898)"><use width="100%" height="100%" xlink:href="#E1-MJMAIN-2212" transform="matrix(0.707,0,0,0.707,0,0)"></use><use x="778" width="100%" height="100%" xlink:href="#E1-MJMAIN-221E" transform="matrix(0.707,0,0,0.707,0,0)"></use></g></g><use x="7549" width="100%" height="100%" xlink:href="#E1-MJMATHI-66"></use><use x="8100" width="100%" height="100%" xlink:href="#E1-MJMAIN-28"></use><use x="8489" width="100%" height="100%" xlink:href="#E1-MJMATHI-3C4"></use><use x="9007" width="100%" height="100%" xlink:href="#E1-MJMAIN-29"></use><use x="9396" width="100%" height="100%" xlink:href="#E1-MJMATHI-67"></use><use x="9877" width="100%" height="100%" xlink:href="#E1-MJMAIN-28"></use><use x="10266" width="100%" height="100%" xlink:href="#E1-MJMATHI-6E"></use><use x="11089" width="100%" height="100%" xlink:href="#E1-MJMAIN-2212"></use><use x="12090" width="100%" height="100%" xlink:href="#E1-MJMATHI-3C4"></use><use x="12607" width="100%" height="100%" xlink:href="#E1-MJMAIN-29"></use><use x="12997" width="100%" height="100%" xlink:href="#E1-MJMATHI-64"></use><use x="13520" width="100%" height="100%" xlink:href="#E1-MJMATHI-3C4"></use></g></g></svg>